<svg width="96" height="416" viewBox="0 0 96 416" fill="none" xmlns="http://www.w3.org/2000/svg">
<path d="M48 240C65.6731 240 80 225.673 80 208C80 190.327 65.6731 176 48 176C30.3269 176 16 190.327 16 208C16 225.673 30.3269 240 48 240Z" fill="#BDBDBD" stroke="#BDBDBD" stroke-width="32" stroke-miterlimit="10"/>
<path d="M48 400C65.6731 400 80 385.673 80 368C80 350.327 65.6731 336 48 336C30.3269 336 16 350.327 16 368C16 385.673 30.3269 400 48 400Z" fill="#BDBDBD" stroke="#BDBDBD" stroke-width="32" stroke-miterlimit="10"/>
<path d="M48 80C65.6731 80 80 65.6731 80 48C80 30.3269 65.6731 16 48 16C30.3269 16 16 30.3269 16 48C16 65.6731 30.3269 80 48 80Z" fill="#BDBDBD" stroke="#BDBDBD" stroke-width="32" stroke-miterlimit="10"/>
</svg>
