<svg width="384" height="416" viewBox="0 0 384 416" fill="none" xmlns="http://www.w3.org/2000/svg">
<path d="M64 256C90.5097 256 112 234.51 112 208C112 181.49 90.5097 160 64 160C37.4903 160 16 181.49 16 208C16 234.51 37.4903 256 64 256Z" stroke="#BDBDBD" stroke-width="32" stroke-linecap="round" stroke-linejoin="round"/>
<path d="M320 112C346.51 112 368 90.5097 368 64C368 37.4903 346.51 16 320 16C293.49 16 272 37.4903 272 64C272 90.5097 293.49 112 320 112Z" stroke="#BDBDBD" stroke-width="32" stroke-linecap="round" stroke-linejoin="round"/>
<path d="M320 400C346.51 400 368 378.51 368 352C368 325.49 346.51 304 320 304C293.49 304 272 325.49 272 352C272 378.51 293.49 400 320 400Z" stroke="#BDBDBD" stroke-width="32" stroke-linecap="round" stroke-linejoin="round"/>
<path d="M278.17 87.53L105.83 184.47M105.83 231.53L278.17 328.47L105.83 231.53Z" stroke="#BDBDBD" stroke-width="32" stroke-linecap="round" stroke-linejoin="round"/>
</svg>
