<svg width="512" height="448" viewBox="0 0 512 448" fill="none" xmlns="http://www.w3.org/2000/svg">
<path d="M16 96H432C440.84 96 448 88.84 448 80V16C448 7.16 440.84 0 432 0H16C7.16 0 0 7.16 0 16V80C0 88.84 7.16 96 16 96ZM496 176H80C71.16 176 64 183.16 64 192V256C64 264.84 71.16 272 80 272H496C504.84 272 512 264.84 512 256V192C512 183.16 504.84 176 496 176ZM432 352H16C7.16 352 0 359.16 0 368V432C0 440.84 7.16 448 16 448H432C440.84 448 448 440.84 448 432V368C448 359.16 440.84 352 432 352Z" fill="white"/>
</svg>
