<svg width="384" height="224" viewBox="0 0 384 224" fill="none" xmlns="http://www.w3.org/2000/svg">
<g clip-path="url(#clip0)">
<path d="M367.997 0H249.938C228.557 0 217.848 25.85 232.967 40.97L265.367 73.37L191.997 146.75L118.628 73.38C106.128 60.88 85.8675 60.88 73.3775 73.38L4.6875 142.07C-1.5625 148.32 -1.5625 158.45 4.6875 164.7L27.3075 187.32C33.5575 193.57 43.6875 193.57 49.9375 187.32L95.9975 141.25L169.367 214.62C181.867 227.12 202.127 227.12 214.617 214.62L310.617 118.62L343.017 151.02C358.137 166.14 383.987 155.43 383.987 134.05V16C383.997 7.16 376.837 0 367.997 0Z" fill="#00E676"/>
<path d="M367.997 0H249.938C228.557 0 217.848 25.85 232.967 40.97L265.367 73.37L191.997 146.75L118.628 73.38C106.128 60.88 85.8675 60.88 73.3775 73.38L4.6875 142.07C-1.5625 148.32 -1.5625 158.45 4.6875 164.7L27.3075 187.32C33.5575 193.57 43.6875 193.57 49.9375 187.32L95.9975 141.25L169.367 214.62C181.867 227.12 202.127 227.12 214.617 214.62L310.617 118.62L343.017 151.02C358.137 166.14 383.987 155.43 383.987 134.05V16C383.997 7.16 376.837 0 367.997 0Z" stroke="#00E676"/>
</g>
<defs>
<clipPath id="clip0">
<rect width="384" height="224" fill="white"/>
</clipPath>
</defs>
</svg>
