<svg width="584" height="512" viewBox="0 0 584 512" fill="none" xmlns="http://www.w3.org/2000/svg">
<g filter="url(#filter0_d)">
<path d="M556 64H92C78.745 64 68 74.745 68 88V96H28C14.745 96 4 106.745 4 120V392C4 422.928 29.072 448 60 448H532C558.51 448 580 426.51 580 400V88C580 74.745 569.255 64 556 64ZM60 400C57.8783 400 55.8434 399.157 54.3431 397.657C52.8429 396.157 52 394.122 52 392V144H68V392C68 394.122 67.1571 396.157 65.6569 397.657C64.1566 399.157 62.1217 400 60 400ZM296 384H144C137.373 384 132 378.627 132 372V364C132 357.373 137.373 352 144 352H296C302.627 352 308 357.373 308 364V372C308 378.627 302.627 384 296 384ZM504 384H352C345.373 384 340 378.627 340 372V364C340 357.373 345.373 352 352 352H504C510.627 352 516 357.373 516 364V372C516 378.627 510.627 384 504 384ZM296 288H144C137.373 288 132 282.627 132 276V268C132 261.373 137.373 256 144 256H296C302.627 256 308 261.373 308 268V276C308 282.627 302.627 288 296 288ZM504 288H352C345.373 288 340 282.627 340 276V268C340 261.373 345.373 256 352 256H504C510.627 256 516 261.373 516 268V276C516 282.627 510.627 288 504 288ZM504 192H144C137.373 192 132 186.627 132 180V140C132 133.373 137.373 128 144 128H504C510.627 128 516 133.373 516 140V180C516 186.627 510.627 192 504 192Z" fill="#6062A8"/>
</g>
<defs>
<filter id="filter0_d" x="0" y="0" width="584" height="520" filterUnits="userSpaceOnUse" color-interpolation-filters="sRGB">
<feFlood flood-opacity="0" result="BackgroundImageFix"/>
<feColorMatrix in="SourceAlpha" type="matrix" values="0 0 0 0 0 0 0 0 0 0 0 0 0 0 0 0 0 0 127 0" result="hardAlpha"/>
<feOffset dy="4"/>
<feGaussianBlur stdDeviation="2"/>
<feComposite in2="hardAlpha" operator="out"/>
<feColorMatrix type="matrix" values="0 0 0 0 0 0 0 0 0 0 0 0 0 0 0 0 0 0 0.25 0"/>
<feBlend mode="normal" in2="BackgroundImageFix" result="effect1_dropShadow"/>
<feBlend mode="normal" in="SourceGraphic" in2="effect1_dropShadow" result="shape"/>
</filter>
</defs>
</svg>
