<svg width="512" height="512" viewBox="0 0 512 512" fill="none" xmlns="http://www.w3.org/2000/svg">
<g clip-path="url(#clip0)">
<path d="M176 216H336C344.84 216 352 208.84 352 200V184C352 175.16 344.84 168 336 168H176C167.16 168 160 175.16 160 184V200C160 208.84 167.16 216 176 216ZM160 296C160 304.84 167.16 312 176 312H336C344.84 312 352 304.84 352 296V280C352 271.16 344.84 264 336 264H176C167.16 264 160 271.16 160 280V296ZM256 417.13C239.58 417.13 223.16 412.07 209.14 401.94L0 250.86V464C0 490.51 21.49 512 48 512H464C490.51 512 512 490.51 512 464V250.86L302.86 401.94C288.84 412.06 272.42 417.13 256 417.13ZM493.61 162.95C484.76 156.01 476.37 149.48 464 140.14V95.9999C464 69.4899 442.51 47.9999 416 47.9999H338.45C335.41 45.7999 332.58 43.7399 329.41 41.4399C312.6 29.1699 279.2 -0.350088 256 -8.84575e-05C232.8 -0.350088 199.41 29.1699 182.59 41.4399C179.42 43.7399 176.59 45.7999 173.55 47.9999H96C69.49 47.9999 48 69.4899 48 95.9999V140.14C35.63 149.47 27.24 156.01 18.39 162.95C12.6616 167.439 8.02915 173.172 4.84314 179.716C1.65713 186.26 0.000985806 193.442 0 200.72L0 211.37L96 280.72V95.9999H416V280.72L512 211.37V200.72C512 185.98 505.22 172.05 493.61 162.95V162.95Z" fill="white"/>
</g>
<defs>
<clipPath id="clip0">
<rect width="512" height="512" fill="white"/>
</clipPath>
</defs>
</svg>
