<svg width="576" height="512" viewBox="0 0 576 512" fill="none" xmlns="http://www.w3.org/2000/svg">
<path d="M0 432C0 458.5 21.5 480 48 480H528C554.5 480 576 458.5 576 432V256H0V432ZM192 364C192 357.4 197.4 352 204 352H340C346.6 352 352 357.4 352 364V404C352 410.6 346.6 416 340 416H204C197.4 416 192 410.6 192 404V364ZM64 364C64 357.4 69.4 352 76 352H148C154.6 352 160 357.4 160 364V404C160 410.6 154.6 416 148 416H76C69.4 416 64 410.6 64 404V364ZM576 80V128H0V80C0 53.5 21.5 32 48 32H528C554.5 32 576 53.5 576 80Z" fill="white"/>
</svg>
