<svg width="512" height="512" viewBox="0 0 512 512" fill="none" xmlns="http://www.w3.org/2000/svg">
<g clip-path="url(#clip0)">
<path d="M128 256C102.684 256 77.9366 263.507 56.8871 277.572C35.8376 291.637 19.4315 311.628 9.74348 335.017C0.0554619 358.405 -2.47937 384.142 2.45954 408.972C7.39845 433.801 19.5893 456.609 37.4904 474.51C55.3915 492.411 78.1989 504.602 103.029 509.541C127.858 514.479 153.595 511.945 176.984 502.257C200.372 492.569 220.363 476.162 234.428 455.113C248.493 434.064 256 409.316 256 384C256 350.052 242.514 317.495 218.51 293.49C194.505 269.486 161.948 256 128 256ZM507 201.14L400.07 18.29C396.774 12.7179 392.083 8.10059 386.46 4.89321C380.836 1.68582 374.474 -0.000976562 368 -0.000976562C361.526 -0.000976563 355.164 1.68582 349.54 4.89321C343.917 8.10059 339.226 12.7179 335.93 18.29L229 201.14C214.76 225.52 232.58 256 261.09 256H474.91C503.42 256 521.24 225.52 507 201.14ZM480 288H320C311.513 288 303.374 291.371 297.373 297.373C291.371 303.374 288 311.513 288 320V480C288 488.487 291.371 496.626 297.373 502.627C303.374 508.629 311.513 512 320 512H480C488.487 512 496.626 508.629 502.627 502.627C508.629 496.626 512 488.487 512 480V320C512 311.513 508.629 303.374 502.627 297.373C496.626 291.371 488.487 288 480 288Z" fill="white"/>
</g>
<defs>
<clipPath id="clip0">
<rect width="512" height="512" fill="white"/>
</clipPath>
</defs>
</svg>
