<svg width="2437" height="3199" viewBox="0 0 2437 3199" fill="none" xmlns="http://www.w3.org/2000/svg">
<path d="M1218.33 2436.67C1385.85 2436.67 1522.92 2299.6 1522.92 2132.08C1522.92 1964.56 1385.85 1827.5 1218.33 1827.5C1050.81 1827.5 913.75 1964.56 913.75 2132.08C913.75 2299.6 1050.81 2436.67 1218.33 2436.67ZM2132.08 1066.04H1979.79V761.458C1979.79 341.133 1638.66 0 1218.33 0C798.008 0 456.875 341.133 456.875 761.458H746.229C746.229 501.04 957.914 289.354 1218.33 289.354C1478.75 289.354 1690.44 501.04 1690.44 761.458V1066.04H304.583C137.062 1066.04 0 1203.1 0 1370.63V2893.54C0 3061.06 137.062 3198.13 304.583 3198.13H2132.08C2299.6 3198.13 2436.67 3061.06 2436.67 2893.54V1370.63C2436.67 1203.1 2299.6 1066.04 2132.08 1066.04ZM2132.08 2893.54H304.583V1370.63H2132.08V2893.54Z" fill="#40C2FD"/>
</svg>
