<svg width="2636" height="3460" viewBox="0 0 2636 3460" fill="none" xmlns="http://www.w3.org/2000/svg">
<path d="M2306.5 1153.25H2141.75V823.75C2141.75 369.04 1772.71 0 1318 0C863.29 0 494.25 369.04 494.25 823.75V1153.25H329.5C148.275 1153.25 0 1301.52 0 1482.75V3130.25C0 3311.48 148.275 3459.75 329.5 3459.75H2306.5C2487.73 3459.75 2636 3311.48 2636 3130.25V1482.75C2636 1301.52 2487.73 1153.25 2306.5 1153.25ZM1318 2636C1136.77 2636 988.5 2487.73 988.5 2306.5C988.5 2125.27 1136.77 1977 1318 1977C1499.23 1977 1647.5 2125.27 1647.5 2306.5C1647.5 2487.73 1499.23 2636 1318 2636ZM1828.73 1153.25H807.275V823.75C807.275 542.027 1036.28 313.025 1318 313.025C1599.72 313.025 1828.73 542.027 1828.73 823.75V1153.25Z" fill="white"/>
</svg>
