<svg width="202" height="231" viewBox="0 0 202 231" fill="none" xmlns="http://www.w3.org/2000/svg">
<path d="M180.357 101.062H169.536V68.5781C169.536 30.7699 138.785 0 101 0C63.2152 0 32.4643 30.7699 32.4643 68.5781V101.062H21.6429C9.6942 101.062 0 110.763 0 122.719V209.344C0 221.3 9.6942 231 21.6429 231H180.357C192.306 231 202 221.3 202 209.344V122.719C202 110.763 192.306 101.062 180.357 101.062ZM133.464 101.062H68.5357V68.5781C68.5357 50.6666 83.0996 36.0938 101 36.0938C118.9 36.0938 133.464 50.6666 133.464 68.5781V101.062Z" fill="#6264A7"/>
</svg>
